<mxfile host="app.diagrams.net" modified="2021-02-28T21:33:25.458Z" agent="5.0 (Windows NT 10.0; Win64; x64) AppleWebKit/537.36 (KHTML, like Gecko) Chrome/88.0.4324.190 Safari/537.36" etag="_MS6HNUMRexxVOfaFtLm" version="14.4.3" type="github">
  <diagram id="d0O2t0l7nCjJ0RANhwD6" name="Page-1">
    <mxGraphModel dx="982" dy="550" grid="1" gridSize="10" guides="1" tooltips="1" connect="1" arrows="1" fold="1" page="1" pageScale="1" pageWidth="827" pageHeight="1169" math="0" shadow="0">
      <root>
        <mxCell id="0" />
        <mxCell id="1" parent="0" />
        <mxCell id="uHFLuxaYbByMKSDUNxEg-1" value="Actor" style="shape=umlActor;verticalLabelPosition=bottom;verticalAlign=top;html=1;outlineConnect=0;" parent="1" vertex="1">
          <mxGeometry x="70" y="190" width="30" height="60" as="geometry" />
        </mxCell>
        <mxCell id="uHFLuxaYbByMKSDUNxEg-2" value="" style="rounded=0;whiteSpace=wrap;html=1;" parent="1" vertex="1">
          <mxGeometry x="210" y="50" width="360" height="370" as="geometry" />
        </mxCell>
        <mxCell id="uHFLuxaYbByMKSDUNxEg-4" value="" style="rounded=0;whiteSpace=wrap;html=1;" parent="1" vertex="1">
          <mxGeometry x="325" y="65" width="130" height="30" as="geometry" />
        </mxCell>
        <mxCell id="uHFLuxaYbByMKSDUNxEg-5" value="Chefs Friend" style="text;html=1;strokeColor=none;fillColor=none;align=center;verticalAlign=middle;whiteSpace=wrap;rounded=0;" parent="1" vertex="1">
          <mxGeometry x="347" y="70" width="86" height="20" as="geometry" />
        </mxCell>
        <mxCell id="xsGUAwIPjq5T2tPu7MOI-1" value="&lt;font style=&quot;font-size: 9px&quot;&gt;Create Account&lt;/font&gt;" style="ellipse;whiteSpace=wrap;html=1;" vertex="1" parent="1">
          <mxGeometry x="255" y="110" width="70" height="30" as="geometry" />
        </mxCell>
        <mxCell id="xsGUAwIPjq5T2tPu7MOI-3" value="" style="endArrow=none;html=1;" edge="1" parent="1" target="xsGUAwIPjq5T2tPu7MOI-1">
          <mxGeometry width="50" height="50" relative="1" as="geometry">
            <mxPoint x="110" y="220" as="sourcePoint" />
            <mxPoint x="180" y="170" as="targetPoint" />
          </mxGeometry>
        </mxCell>
        <mxCell id="xsGUAwIPjq5T2tPu7MOI-8" value="&lt;font style=&quot;font-size: 9px&quot;&gt;Login/out&lt;/font&gt;" style="ellipse;whiteSpace=wrap;html=1;" vertex="1" parent="1">
          <mxGeometry x="255" y="235" width="70" height="30" as="geometry" />
        </mxCell>
        <mxCell id="xsGUAwIPjq5T2tPu7MOI-9" value="&lt;font style=&quot;font-size: 9px&quot;&gt;Modify Account&lt;/font&gt;" style="ellipse;whiteSpace=wrap;html=1;" vertex="1" parent="1">
          <mxGeometry x="255" y="170" width="70" height="30" as="geometry" />
        </mxCell>
        <mxCell id="xsGUAwIPjq5T2tPu7MOI-10" value="" style="endArrow=none;html=1;" edge="1" parent="1" target="xsGUAwIPjq5T2tPu7MOI-8">
          <mxGeometry width="50" height="50" relative="1" as="geometry">
            <mxPoint x="110" y="220" as="sourcePoint" />
            <mxPoint x="269.5509019823239" y="155.2977020329257" as="targetPoint" />
            <Array as="points" />
          </mxGeometry>
        </mxCell>
        <mxCell id="xsGUAwIPjq5T2tPu7MOI-11" value="" style="endArrow=none;html=1;entryX=0;entryY=0.5;entryDx=0;entryDy=0;" edge="1" parent="1" target="xsGUAwIPjq5T2tPu7MOI-9">
          <mxGeometry width="50" height="50" relative="1" as="geometry">
            <mxPoint x="110" y="220" as="sourcePoint" />
            <mxPoint x="262.9522117740071" y="191.02960964045724" as="targetPoint" />
            <Array as="points">
              <mxPoint x="210" y="200" />
            </Array>
          </mxGeometry>
        </mxCell>
        <mxCell id="xsGUAwIPjq5T2tPu7MOI-13" value="&lt;font style=&quot;font-size: 9px&quot;&gt;Verify Information&lt;/font&gt;" style="ellipse;whiteSpace=wrap;html=1;" vertex="1" parent="1">
          <mxGeometry x="400" y="210" width="76" height="30" as="geometry" />
        </mxCell>
        <mxCell id="xsGUAwIPjq5T2tPu7MOI-14" value="&lt;font style=&quot;font-size: 6px&quot;&gt;&amp;lt;&amp;lt;include&amp;gt;&amp;gt;&lt;/font&gt;" style="endArrow=classic;dashed=1;html=1;entryX=0.03;entryY=0.407;entryDx=0;entryDy=0;entryPerimeter=0;startArrow=none;startFill=0;endFill=1;" edge="1" parent="1" source="xsGUAwIPjq5T2tPu7MOI-8" target="xsGUAwIPjq5T2tPu7MOI-13">
          <mxGeometry width="50" height="50" relative="1" as="geometry">
            <mxPoint x="230" y="360" as="sourcePoint" />
            <mxPoint x="280" y="310" as="targetPoint" />
          </mxGeometry>
        </mxCell>
        <mxCell id="xsGUAwIPjq5T2tPu7MOI-16" value="&lt;font style=&quot;font-size: 9px&quot;&gt;Display Error&lt;/font&gt;" style="ellipse;whiteSpace=wrap;html=1;" vertex="1" parent="1">
          <mxGeometry x="400" y="260" width="76" height="30" as="geometry" />
        </mxCell>
        <mxCell id="xsGUAwIPjq5T2tPu7MOI-17" value="&lt;font style=&quot;font-size: 6px&quot;&gt;&amp;lt;&amp;lt;extend&amp;gt;&amp;gt;&lt;/font&gt;" style="endArrow=none;dashed=1;html=1;exitX=1;exitY=0.5;exitDx=0;exitDy=0;startArrow=classic;startFill=1;" edge="1" parent="1" source="xsGUAwIPjq5T2tPu7MOI-8" target="xsGUAwIPjq5T2tPu7MOI-16">
          <mxGeometry width="50" height="50" relative="1" as="geometry">
            <mxPoint x="230" y="300" as="sourcePoint" />
            <mxPoint x="280" y="250" as="targetPoint" />
          </mxGeometry>
        </mxCell>
        <mxCell id="xsGUAwIPjq5T2tPu7MOI-20" value="&lt;font style=&quot;font-size: 9px&quot;&gt;Verify Data Consistency&lt;/font&gt;" style="ellipse;whiteSpace=wrap;html=1;" vertex="1" parent="1">
          <mxGeometry x="433" y="95" width="76" height="30" as="geometry" />
        </mxCell>
        <mxCell id="xsGUAwIPjq5T2tPu7MOI-22" value="&lt;font style=&quot;font-size: 6px&quot;&gt;&amp;lt;&amp;lt;include&amp;gt;&amp;gt;&lt;/font&gt;" style="endArrow=classic;dashed=1;html=1;entryX=0.189;entryY=0.868;entryDx=0;entryDy=0;entryPerimeter=0;startArrow=none;startFill=0;endFill=1;exitX=1;exitY=0.5;exitDx=0;exitDy=0;" edge="1" parent="1" source="xsGUAwIPjq5T2tPu7MOI-9" target="xsGUAwIPjq5T2tPu7MOI-20">
          <mxGeometry width="50" height="50" relative="1" as="geometry">
            <mxPoint x="318.0500946618811" y="180.3042745089826" as="sourcePoint" />
            <mxPoint x="400" y="160.00000000000006" as="targetPoint" />
          </mxGeometry>
        </mxCell>
        <mxCell id="xsGUAwIPjq5T2tPu7MOI-23" value="&lt;font style=&quot;font-size: 6px&quot;&gt;&amp;lt;&amp;lt;include&amp;gt;&amp;gt;&lt;/font&gt;" style="endArrow=classic;dashed=1;html=1;entryX=0;entryY=0.5;entryDx=0;entryDy=0;startArrow=none;startFill=0;endFill=1;exitX=1;exitY=1;exitDx=0;exitDy=0;" edge="1" parent="1" source="xsGUAwIPjq5T2tPu7MOI-1" target="xsGUAwIPjq5T2tPu7MOI-20">
          <mxGeometry width="50" height="50" relative="1" as="geometry">
            <mxPoint x="340.33009466188105" y="262.51427450898257" as="sourcePoint" />
            <mxPoint x="422.28" y="242.21000000000004" as="targetPoint" />
          </mxGeometry>
        </mxCell>
        <mxCell id="xsGUAwIPjq5T2tPu7MOI-24" value="&lt;font style=&quot;font-size: 9px&quot;&gt;Prompt Proper Data Input&lt;/font&gt;" style="ellipse;whiteSpace=wrap;html=1;" vertex="1" parent="1">
          <mxGeometry x="400" y="150" width="76" height="30" as="geometry" />
        </mxCell>
        <mxCell id="xsGUAwIPjq5T2tPu7MOI-25" value="&lt;font style=&quot;font-size: 6px&quot;&gt;&amp;lt;&amp;lt;extend&amp;gt;&amp;gt;&lt;/font&gt;" style="endArrow=none;dashed=1;html=1;exitX=0.963;exitY=0.63;exitDx=0;exitDy=0;startArrow=classic;startFill=1;entryX=0.082;entryY=0.735;entryDx=0;entryDy=0;entryPerimeter=0;exitPerimeter=0;" edge="1" parent="1" source="xsGUAwIPjq5T2tPu7MOI-1" target="xsGUAwIPjq5T2tPu7MOI-24">
          <mxGeometry width="50" height="50" relative="1" as="geometry">
            <mxPoint x="320" y="150" as="sourcePoint" />
            <mxPoint x="399.7859906000556" y="167.71253802195304" as="targetPoint" />
          </mxGeometry>
        </mxCell>
        <mxCell id="xsGUAwIPjq5T2tPu7MOI-26" value="&lt;font style=&quot;font-size: 6px&quot;&gt;&amp;lt;&amp;lt;extend&amp;gt;&amp;gt;&lt;/font&gt;" style="endArrow=none;dashed=1;html=1;startArrow=classic;startFill=1;entryX=0.036;entryY=0.825;entryDx=0;entryDy=0;entryPerimeter=0;" edge="1" parent="1" source="xsGUAwIPjq5T2tPu7MOI-1" target="xsGUAwIPjq5T2tPu7MOI-20">
          <mxGeometry width="50" height="50" relative="1" as="geometry">
            <mxPoint x="332.4100000000001" y="138.89999999999998" as="sourcePoint" />
            <mxPoint x="416.23199999999997" y="182.04999999999995" as="targetPoint" />
          </mxGeometry>
        </mxCell>
        <mxCell id="xsGUAwIPjq5T2tPu7MOI-27" value="&lt;font style=&quot;font-size: 9px&quot;&gt;Forgot Password&lt;/font&gt;" style="ellipse;whiteSpace=wrap;html=1;" vertex="1" parent="1">
          <mxGeometry x="255" y="310" width="70" height="30" as="geometry" />
        </mxCell>
        <mxCell id="xsGUAwIPjq5T2tPu7MOI-28" value="" style="endArrow=none;html=1;entryX=0;entryY=0.5;entryDx=0;entryDy=0;" edge="1" parent="1" target="xsGUAwIPjq5T2tPu7MOI-27">
          <mxGeometry width="50" height="50" relative="1" as="geometry">
            <mxPoint x="110" y="220" as="sourcePoint" />
            <mxPoint x="267.3798364960496" y="254.5633060826749" as="targetPoint" />
            <Array as="points" />
          </mxGeometry>
        </mxCell>
        <mxCell id="xsGUAwIPjq5T2tPu7MOI-29" value="&lt;font style=&quot;font-size: 6px&quot;&gt;&amp;lt;&amp;lt;include&amp;gt;&amp;gt;&lt;/font&gt;" style="endArrow=classic;dashed=1;html=1;startArrow=none;startFill=0;endFill=1;exitX=1;exitY=0.5;exitDx=0;exitDy=0;" edge="1" parent="1" source="xsGUAwIPjq5T2tPu7MOI-27" target="xsGUAwIPjq5T2tPu7MOI-30">
          <mxGeometry width="50" height="50" relative="1" as="geometry">
            <mxPoint x="330.33009466188105" y="252.51427450898257" as="sourcePoint" />
            <mxPoint x="412.28" y="232.21000000000004" as="targetPoint" />
          </mxGeometry>
        </mxCell>
        <mxCell id="xsGUAwIPjq5T2tPu7MOI-30" value="&lt;font style=&quot;font-size: 9px&quot;&gt;Password Reset&lt;/font&gt;" style="ellipse;whiteSpace=wrap;html=1;" vertex="1" parent="1">
          <mxGeometry x="400" y="330" width="76" height="30" as="geometry" />
        </mxCell>
        <mxCell id="xsGUAwIPjq5T2tPu7MOI-31" value="" style="shape=datastore;whiteSpace=wrap;html=1;" vertex="1" parent="1">
          <mxGeometry x="650" y="195" width="60" height="60" as="geometry" />
        </mxCell>
      </root>
    </mxGraphModel>
  </diagram>
</mxfile>
